<svg xmlns="http://www.w3.org/2000/svg" width="1216" height="684" viewBox="0 0 1216 684" role="img" aria-labelledby="t d" lang="fr"><title id="t">Synchronisation iCloud entre Mac, iPhone et iPad</title><desc id="d">Schéma des connexions, groupes et étiquettes synchronisés entre un Mac et un iPhone ou iPad via votre compte iCloud ; les mots de passe passent séparément par le Trousseau iCloud, uniquement lorsque leur synchronisation est activée.</desc><defs><path id="g0" d="M148 0V-1118H368V0ZM259 -1289Q202 -1289 161.5 -1327Q121 -1365 121 -1419Q121 -1474 161.5 -1512Q202 -1550 259 -1550Q316 -1550 357 -1512Q398 -1474 398 -1419Q398 -1365 357 -1327Q316 -1289 259 -1289Z"/><path id="g1" d="M784 20Q591 20 439 -71.5Q287 -163 200 -334.5Q113 -506 113 -744Q113 -983 200 -1154.5Q287 -1326 439 -1418Q591 -1510 784 -1510Q902 -1510 1005.5 -1476Q1109 -1442 1190.5 -1377Q1272 -1312 1325.5 -1219Q1379 -1126 1398 -1008H1169Q1155 -1079 1119.5 -1133.5Q1084 -1188 1033 -1226Q982 -1264 919 -1283Q856 -1302 786 -1302Q658 -1302 556.5 -1237.5Q455 -1173 397 -1048.5Q339 -924 339 -744Q339 -564 398 -439.5Q457 -315 558 -251.5Q659 -188 786 -188Q856 -188 918.5 -207.5Q981 -227 1032.5 -264.5Q1084 -302 1119.5 -357Q1155 -412 1169 -482H1399Q1382 -372 1330 -280.5Q1278 -189 1197 -121Q1116 -53 1011.5 -16.5Q907 20 784 20Z"/><path id="g2" d="M368 -1490V0H148V-1490Z"/><path id="g3" d="M618 23Q461 23 343.5 -49Q226 -121 161 -251Q96 -381 96 -553Q96 -727 161 -857.5Q226 -988 343.5 -1060Q461 -1132 618 -1132Q776 -1132 893.5 -1060Q1011 -988 1076 -857.5Q1141 -727 1141 -553Q1141 -381 1076 -251Q1011 -121 893.5 -49Q776 23 618 23ZM618 -163Q720 -163 786.5 -216.5Q853 -270 885.5 -358.5Q918 -447 918 -553Q918 -660 885.5 -749.5Q853 -839 786.5 -892.5Q720 -946 618 -946Q517 -946 451 -892.5Q385 -839 352.5 -750Q320 -661 320 -553Q320 -447 352.5 -358.5Q385 -270 451 -216.5Q517 -163 618 -163Z"/><path id="g4" d="M529 14Q415 14 329 -34Q243 -82 195.5 -176Q148 -270 148 -408V-1118H368V-435Q368 -314 431.5 -246Q495 -178 604 -178Q679 -178 737.5 -210.5Q796 -243 830 -305.5Q864 -368 864 -456V-1118H1084V0H874L873 -274H894Q845 -122 751 -54Q657 14 529 14Z"/><path id="g5" d="M564 22Q428 22 322 -47.5Q216 -117 156 -246.5Q96 -376 96 -556Q96 -738 157 -867Q218 -996 324 -1064Q430 -1132 564 -1132Q668 -1132 731.5 -1097.5Q795 -1063 831 -1017Q867 -971 886 -936H898V-1490H1118V0H904V-175H886Q867 -139 830 -93Q793 -47 729 -12.5Q665 22 564 22ZM612 -165Q706 -165 770.5 -215Q835 -265 868.5 -353.5Q902 -442 902 -558Q902 -675 869 -761.5Q836 -848 771.5 -896.5Q707 -945 612 -945Q515 -945 450.5 -894Q386 -843 353.5 -755.5Q321 -668 321 -558Q321 -447 354 -358Q387 -269 452 -217Q517 -165 612 -165Z"/><path id="g6" d="M327 -396V-624Q376 -699 424.5 -765Q473 -831 526 -895Q579 -959 639 -1027L1057 -1490H1347L714 -793L699 -796ZM165 0V-1490H393V-1014L389 -674L393 -562V0ZM1083 0 576 -729 719 -904 1353 0Z"/><path id="g7" d="M630 23Q465 23 345 -48Q225 -119 160.5 -248Q96 -377 96 -551Q96 -723 159.5 -854Q223 -985 339 -1058.5Q455 -1132 611 -1132Q707 -1132 796 -1100.5Q885 -1069 956 -1002Q1027 -935 1068.5 -828.5Q1110 -722 1110 -570V-492H219V-656H997L894 -602Q894 -705 862 -783.5Q830 -862 767.5 -906Q705 -950 611 -950Q518 -950 452 -905Q386 -860 351.5 -786.5Q317 -713 317 -626V-514Q317 -399 356.5 -319.5Q396 -240 467 -199.5Q538 -159 632 -159Q694 -159 744 -176.5Q794 -194 830.5 -229.5Q867 -265 886 -317L1093 -268Q1066 -182 1002.5 -116Q939 -50 844.5 -13.5Q750 23 630 23Z"/><path id="g8" d="M133 402 187 223 212 229Q269 244 314.5 237Q360 230 393.5 194.5Q427 159 447 87L471 5L46 -1118H284L505 -483Q542 -377 566.5 -272Q591 -167 620 -63H552Q581 -167 607.5 -272.5Q634 -378 671 -483L896 -1118H1132L646 155Q612 245 562.5 305Q513 365 445 395.5Q377 426 287 426Q235 426 194 418.5Q153 411 133 402Z"/><path id="g9" d="M618 23Q460 23 343 -49Q226 -121 161 -251Q96 -381 96 -553Q96 -727 161 -857.5Q226 -988 343 -1060Q460 -1132 618 -1132Q705 -1132 781 -1109.5Q857 -1087 918.5 -1044.5Q980 -1002 1022.5 -940.5Q1065 -879 1086 -802L877 -752Q866 -795 843 -830.5Q820 -866 787.5 -892Q755 -918 712.5 -932Q670 -946 619 -946Q518 -946 451.5 -892.5Q385 -839 352.5 -750Q320 -661 320 -553Q320 -446 352.5 -357.5Q385 -269 451.5 -216Q518 -163 619 -163Q671 -163 714 -177.5Q757 -192 791 -218.5Q825 -245 848 -282.5Q871 -320 881 -365L1089 -315Q1069 -236 1026 -173.5Q983 -111 921.5 -67Q860 -23 783 0Q706 23 618 23Z"/><path id="g10" d="M368 -662V0H148V-1490H366V-844H337Q386 -994 479 -1063Q572 -1132 704 -1132Q818 -1132 903.5 -1084Q989 -1036 1036.5 -942.5Q1084 -849 1084 -710V0H864V-683Q864 -804 801 -872Q738 -940 628 -940Q554 -940 495 -907.5Q436 -875 402 -813Q368 -751 368 -662Z"/><path id="g11" d="M461 25Q355 25 269 -14.5Q183 -54 133 -130Q83 -206 83 -316Q83 -411 119.5 -472Q156 -533 218.5 -569Q281 -605 357.5 -623Q434 -641 513 -650Q612 -662 674 -669.5Q736 -677 765.5 -694.5Q795 -712 795 -751V-757Q795 -820 771 -863Q747 -906 699.5 -929.5Q652 -953 581 -953Q508 -953 455.5 -930.5Q403 -908 370.5 -873Q338 -838 322 -800L115 -854Q153 -954 224 -1015Q295 -1076 387 -1104Q479 -1132 577 -1132Q645 -1132 721 -1116Q797 -1100 864 -1058Q931 -1016 973 -940Q1015 -864 1015 -742V0H802V-153H791Q769 -110 726 -69Q683 -28 617.5 -1.5Q552 25 461 25ZM510 -152Q600 -152 664 -187Q728 -222 762 -280Q796 -338 796 -403V-546Q784 -534 750.5 -524.5Q717 -515 674 -507.5Q631 -500 591 -495Q551 -490 525 -487Q463 -479 411.5 -460Q360 -441 329.5 -406Q299 -371 299 -313Q299 -260 326.5 -224Q354 -188 401 -170Q448 -152 510 -152Z"/><path id="g12" d="M368 -662V0H148V-1118H358L360 -844H337Q386 -994 479 -1063Q572 -1132 704 -1132Q818 -1132 903 -1084Q988 -1036 1036 -942.5Q1084 -849 1084 -710V0H864V-683Q864 -804 801 -872Q738 -940 628 -940Q554 -940 495 -907.5Q436 -875 402 -813Q368 -751 368 -662Z"/><path id="g13" d="M57 0 496 -659 495 -489 80 -1118H328L454 -914Q506 -830 545.5 -753Q585 -676 626 -604H525Q568 -676 604 -753Q640 -830 694 -914L823 -1118H1067L648 -483V-648L1084 0H837L687 -238Q635 -321 596 -396Q557 -471 516 -541H618Q578 -471 542 -396Q506 -321 454 -238L302 0Z"/><path id="g14" d="M549 23Q428 23 333.5 -12Q239 -47 178.5 -115.5Q118 -184 98 -283L305 -326Q328 -239 391 -197Q454 -155 551 -155Q657 -155 720 -199.5Q783 -244 783 -306Q783 -360 744.5 -395Q706 -430 626 -447L438 -490Q282 -525 206 -602Q130 -679 130 -799Q130 -899 186 -974Q242 -1049 339 -1090.5Q436 -1132 563 -1132Q684 -1132 770 -1097Q856 -1062 909.5 -999Q963 -936 986 -853L789 -810Q768 -869 716 -913.5Q664 -958 565 -958Q474 -958 413 -917Q352 -876 352 -813Q352 -757 392.5 -722.5Q433 -688 525 -667L705 -627Q860 -592 935 -517Q1010 -442 1010 -325Q1010 -223 951.5 -144.5Q893 -66 789.5 -21.5Q686 23 549 23Z"/><path id="g15" d="M125 371 213 -214H450L285 371Z"/><path id="g16" d="M615 442Q486 442 391 409Q296 376 234.5 321Q173 266 141 199L325 112Q345 144 378.5 179.5Q412 215 469 240Q526 265 615 265Q743 265 822.5 204.5Q902 144 902 15V-203H883Q863 -166 827.5 -123Q792 -80 728.5 -48.5Q665 -17 563 -17Q431 -17 325.5 -79Q220 -141 158 -263Q96 -385 96 -563Q96 -741 157.5 -868.5Q219 -996 325.5 -1064Q432 -1132 566 -1132Q669 -1132 733.5 -1098Q798 -1064 834.5 -1017.5Q871 -971 890 -936H906V-1118H1121V16Q1121 163 1054.5 257.5Q988 352 873.5 397Q759 442 615 442ZM614 -200Q708 -200 772.5 -243.5Q837 -287 870 -369.5Q903 -452 903 -566Q903 -679 870 -764Q837 -849 772.5 -897Q708 -945 614 -945Q517 -945 452 -894.5Q387 -844 354 -758.5Q321 -673 321 -566Q321 -457 354 -374.5Q387 -292 452.5 -246Q518 -200 614 -200Z"/><path id="g17" d="M148 0V-1118H361V-938H373Q404 -1030 481 -1082Q558 -1134 656 -1134Q677 -1134 704 -1132.5Q731 -1131 749 -1128V-918Q737 -922 703 -926Q669 -930 634 -930Q558 -930 497 -898Q436 -866 402 -809.5Q368 -753 368 -679V0Z"/><path id="g18" d="M148 418V-1118H362V-936H380Q400 -971 435.5 -1017Q471 -1063 534.5 -1097.5Q598 -1132 703 -1132Q837 -1132 942.5 -1064Q1048 -996 1109 -867Q1170 -738 1170 -556Q1170 -376 1110 -246.5Q1050 -117 944.5 -47.5Q839 22 703 22Q602 22 537.5 -12.5Q473 -47 436.5 -93Q400 -139 380 -175H368V418ZM654 -165Q750 -165 815 -217Q880 -269 912.5 -358Q945 -447 945 -558Q945 -668 912.5 -755.5Q880 -843 815.5 -894Q751 -945 654 -945Q560 -945 495 -896.5Q430 -848 397 -761.5Q364 -675 364 -558Q364 -442 397.5 -353.5Q431 -265 496 -215Q561 -165 654 -165Z"/><path id="g19" d="M626 -1118V-939H20V-1118ZM183 -1384H403V-302Q403 -235 431.5 -203.5Q460 -172 525 -172Q542 -172 570 -176Q598 -180 618 -184L657 -8Q622 4 582 9.5Q542 15 503 15Q351 15 267 -63.5Q183 -142 183 -284Z"/><path id="g20" d="M630 23Q465 23 345 -48Q225 -119 160.5 -248Q96 -377 96 -551Q96 -723 159.5 -854Q223 -985 339 -1058.5Q455 -1132 611 -1132Q707 -1132 796 -1100.5Q885 -1069 956 -1002Q1027 -935 1068.5 -828.5Q1110 -722 1110 -570V-492H219V-656H997L894 -602Q894 -705 862 -783.5Q830 -862 767.5 -906Q705 -950 611 -950Q518 -950 452 -905Q386 -860 351.5 -786.5Q317 -713 317 -626V-514Q317 -399 356.5 -319.5Q396 -240 467 -199.5Q538 -159 632 -159Q694 -159 744 -176.5Q794 -194 830.5 -229.5Q867 -265 886 -317L1093 -268Q1066 -182 1002.5 -116Q939 -50 844.5 -13.5Q750 23 630 23ZM517 -1263 657 -1562H884L685 -1263Z"/><path id="g21" d="M1118 418H898V-175H886Q867 -139 830 -93Q793 -47 729 -12.5Q665 22 564 22Q428 22 322 -47.5Q216 -117 156 -246.5Q96 -376 96 -556Q96 -738 157 -867Q218 -996 324 -1064Q430 -1132 564 -1132Q668 -1132 731.5 -1097.5Q795 -1063 831 -1017Q867 -971 886 -936H904V-1118H1118ZM612 -165Q706 -165 770.5 -215Q835 -265 868.5 -353.5Q902 -442 902 -558Q902 -675 869 -761.5Q836 -848 771.5 -896.5Q707 -945 612 -945Q515 -945 450.5 -894Q386 -843 353.5 -755.5Q321 -668 321 -558Q321 -447 354 -358Q387 -269 452 -217Q517 -165 612 -165Z"/><path id="g22" d="M165 0V-1490H501L826 -635Q840 -597 857.5 -539Q875 -481 894 -413Q913 -345 930 -279Q947 -213 960 -160H912Q925 -210 942 -275.5Q959 -341 978 -409Q997 -477 1015 -537Q1033 -597 1047 -635L1367 -1490H1705V0H1478V-802Q1478 -848 1479 -912Q1480 -976 1481.5 -1047.5Q1483 -1119 1484.5 -1192Q1486 -1265 1487 -1332H1504Q1484 -1259 1460.5 -1181.5Q1437 -1104 1414.5 -1032Q1392 -960 1371.5 -900.5Q1351 -841 1337 -802L1032 0H837L528 -802Q513 -840 493.5 -898.5Q474 -957 451 -1028.5Q428 -1100 404 -1177.5Q380 -1255 356 -1332H376Q378 -1271 379.5 -1199.5Q381 -1128 382.5 -1055Q384 -982 385.5 -916.5Q387 -851 387 -802V0Z"/><path id="g23" d="M148 0V-1118H357L363 -859H346Q370 -954 420 -1015Q470 -1076 537 -1106.5Q604 -1137 677 -1137Q799 -1137 874 -1061.5Q949 -986 975 -851H947Q969 -943 1023 -1007Q1077 -1071 1153.5 -1104Q1230 -1137 1317 -1137Q1416 -1137 1496.5 -1094Q1577 -1051 1624 -966Q1671 -881 1671 -754V0H1451V-732Q1451 -844 1388.5 -894Q1326 -944 1241 -944Q1172 -944 1122 -915Q1072 -886 1045 -834.5Q1018 -783 1018 -716V0H801V-746Q801 -836 743.5 -890Q686 -944 597 -944Q536 -944 483.5 -915.5Q431 -887 399.5 -831.5Q368 -776 368 -695V0Z"/><path id="g24" d="M468 0 46 -1118H284L505 -483Q542 -378 568 -272.5Q594 -167 623 -63H557Q585 -167 611 -272.5Q637 -378 673 -483L894 -1118H1130L708 0Z"/><path id="g25" d="M150 0V-1490H552L835 -721Q850 -678 868.5 -610.5Q887 -543 906.5 -465Q926 -387 943.5 -312.5Q961 -238 973 -181H919Q931 -237 948.5 -310.5Q966 -384 985.5 -462.5Q1005 -541 1023.5 -609Q1042 -677 1056 -721L1336 -1490H1739V0H1473V-752Q1473 -800 1474 -868Q1475 -936 1477 -1014Q1479 -1092 1481 -1171.5Q1483 -1251 1483 -1323H1502Q1482 -1244 1458.5 -1161.5Q1435 -1079 1412 -1001.5Q1389 -924 1368.5 -859Q1348 -794 1333 -752L1058 0H831L552 -752Q537 -794 516.5 -857.5Q496 -921 472.5 -998Q449 -1075 425.5 -1158.5Q402 -1242 379 -1323H401Q402 -1256 404 -1177.5Q406 -1099 407.5 -1020Q409 -941 410.5 -871.5Q412 -802 412 -752V0Z"/><path id="g26" d="M450 23Q344 23 259 -15.5Q174 -54 125 -129Q76 -204 76 -314Q76 -409 111.5 -471Q147 -533 207.5 -570Q268 -607 344 -626Q420 -645 502 -653Q599 -664 660 -672Q721 -680 749.5 -698Q778 -716 778 -754V-759Q778 -814 756 -852.5Q734 -891 690.5 -911.5Q647 -932 583 -932Q518 -932 470.5 -912Q423 -892 393 -860Q363 -828 349 -791L108 -840Q141 -939 210 -1003.5Q279 -1068 374.5 -1100Q470 -1132 582 -1132Q661 -1132 741.5 -1113.5Q822 -1095 889 -1051Q956 -1007 997 -933Q1038 -859 1038 -747V0H789V-154H779Q754 -107 710.5 -66.5Q667 -26 602.5 -1.5Q538 23 450 23ZM517 -170Q598 -170 656.5 -202Q715 -234 747.5 -286.5Q780 -339 780 -401V-533Q767 -523 736.5 -514Q706 -505 668.5 -498Q631 -491 594.5 -486Q558 -481 533 -478Q475 -470 428 -452Q381 -434 354.5 -401.5Q328 -369 328 -317Q328 -269 352.5 -236.5Q377 -204 419.5 -187Q462 -170 517 -170Z"/><path id="g27" d="M623 23Q460 23 340 -49.5Q220 -122 154.5 -251.5Q89 -381 89 -553Q89 -727 154.5 -857.5Q220 -988 340 -1060Q460 -1132 623 -1132Q716 -1132 796 -1108Q876 -1084 939 -1038.5Q1002 -993 1044.5 -928Q1087 -863 1105 -781L862 -730Q851 -773 830.5 -808.5Q810 -844 780 -869Q750 -894 711 -907.5Q672 -921 625 -921Q534 -921 474 -872.5Q414 -824 384 -741.5Q354 -659 354 -554Q354 -451 384 -368Q414 -285 474 -236.5Q534 -188 625 -188Q673 -188 712.5 -202Q752 -216 782.5 -242Q813 -268 834 -305Q855 -342 865 -387L1108 -336Q1090 -252 1047.5 -186Q1005 -120 941.5 -73.5Q878 -27 797.5 -2Q717 23 623 23Z"/><path id="g28" d="M581 0 50 -1490H343L607 -716Q644 -600 687 -448.5Q730 -297 780 -106H724Q774 -300 815.5 -450Q857 -600 893 -716L1149 -1490H1441L919 0Z"/><path id="g29" d="M623 23Q460 23 340 -49.5Q220 -122 154.5 -251.5Q89 -381 89 -553Q89 -727 154.5 -857.5Q220 -988 340 -1060Q460 -1132 623 -1132Q787 -1132 907 -1060Q1027 -988 1092.5 -857.5Q1158 -727 1158 -553Q1158 -381 1092.5 -251.5Q1027 -122 907 -49.5Q787 23 623 23ZM623 -188Q714 -188 774.5 -237Q835 -286 864.5 -369Q894 -452 894 -554Q894 -657 864.5 -740Q835 -823 774.5 -872Q714 -921 623 -921Q532 -921 472.5 -872Q413 -823 383.5 -740.5Q354 -658 354 -554Q354 -452 383.5 -369Q413 -286 472.5 -237Q532 -188 623 -188Z"/><path id="g30" d="M655 -1118V-914H20V-1118ZM179 -1384H439V-315Q439 -254 465 -225.5Q491 -197 550 -197Q568 -197 597.5 -201.5Q627 -206 645 -210L686 -9Q643 4 598 9.5Q553 15 512 15Q351 15 265 -65Q179 -145 179 -293Z"/><path id="g31" d="M138 0V-1118H390V-931H402Q432 -1028 507 -1080.5Q582 -1133 678 -1133Q700 -1133 727 -1131Q754 -1129 773 -1126V-887Q757 -892 721 -896Q685 -900 650 -900Q578 -900 520.5 -869Q463 -838 430.5 -783.5Q398 -729 398 -658V0Z"/><path id="g32" d="M632 23Q463 23 341.5 -48Q220 -119 154.5 -248Q89 -377 89 -552Q89 -725 153.5 -855Q218 -985 336.5 -1058.5Q455 -1132 615 -1132Q717 -1132 809.5 -1099Q902 -1066 973.5 -997Q1045 -928 1085.5 -821.5Q1126 -715 1126 -568V-486H212V-663H997L875 -611Q875 -705 846 -776.5Q817 -848 759.5 -888Q702 -928 616 -928Q530 -928 470 -887.5Q410 -847 378.5 -779.5Q347 -712 347 -629V-507Q347 -401 383 -328Q419 -255 484 -218Q549 -181 635 -181Q692 -181 738.5 -197.5Q785 -214 819 -246.5Q853 -279 870 -326L1109 -277Q1082 -187 1017 -119.5Q952 -52 854.5 -14.5Q757 23 632 23Z"/><path id="g33" d="M138 0V-1118H382L392 -849H373Q397 -949 447.5 -1012Q498 -1075 565.5 -1105.5Q633 -1136 707 -1136Q828 -1136 902.5 -1060Q977 -984 1008 -836H977Q1000 -936 1055.5 -1002.5Q1111 -1069 1187.5 -1102.5Q1264 -1136 1351 -1136Q1452 -1136 1532 -1092Q1612 -1048 1659 -963.5Q1706 -879 1706 -754V0H1446V-714Q1446 -818 1389 -866Q1332 -914 1252 -914Q1190 -914 1144 -887Q1098 -860 1073.5 -812.5Q1049 -765 1049 -702V0H795V-726Q795 -811 742 -862.5Q689 -914 606 -914Q549 -914 501.5 -888Q454 -862 426 -811Q398 -760 398 -685V0Z"/><path id="g34" d="M138 418V-1118H392V-933H409Q429 -973 466 -1019Q503 -1065 566.5 -1098.5Q630 -1132 729 -1132Q859 -1132 963 -1066Q1067 -1000 1128.5 -871.5Q1190 -743 1190 -557Q1190 -373 1130 -244Q1070 -115 965.5 -47.5Q861 20 728 20Q633 20 569 -12.5Q505 -45 467 -91Q429 -137 409 -177H398V418ZM658 -194Q745 -194 804 -241.5Q863 -289 893 -371.5Q923 -454 923 -558Q923 -662 893.5 -743.5Q864 -825 805 -871.5Q746 -918 658 -918Q572 -918 513 -873Q454 -828 423.5 -747.5Q393 -667 393 -558Q393 -449 423.5 -367Q454 -285 513.5 -239.5Q573 -194 658 -194Z"/><path id="g35" d="M138 0V-1118H398V0ZM268 -1276Q206 -1276 161.5 -1318Q117 -1360 117 -1418Q117 -1478 161.5 -1519.5Q206 -1561 268 -1561Q331 -1561 375.5 -1519.5Q420 -1478 420 -1419Q420 -1360 375.5 -1318Q331 -1276 268 -1276Z"/><path id="g36" d="M785 20Q589 20 435 -71Q281 -162 192 -333Q103 -504 103 -744Q103 -985 192.5 -1156.5Q282 -1328 436.5 -1419Q591 -1510 785 -1510Q907 -1510 1013.5 -1475.5Q1120 -1441 1203.5 -1374.5Q1287 -1308 1341 -1212Q1395 -1116 1413 -994H1144Q1131 -1061 1099.5 -1112Q1068 -1163 1021 -1198.5Q974 -1234 915 -1252.5Q856 -1271 789 -1271Q667 -1271 572.5 -1209.5Q478 -1148 424.5 -1030.5Q371 -913 371 -744Q371 -573 425 -456Q479 -339 573.5 -279Q668 -219 788 -219Q855 -219 914 -237.5Q973 -256 1020.5 -291.5Q1068 -327 1100 -378.5Q1132 -430 1144 -496H1414Q1399 -389 1348.5 -295.5Q1298 -202 1216 -131Q1134 -60 1025.5 -20Q917 20 785 20Z"/><path id="g37" d="M398 -1490V0H138V-1490Z"/><path id="g38" d="M521 14Q406 14 319.5 -35Q233 -84 185.5 -178.5Q138 -273 138 -407V-1118H398V-447Q398 -335 456.5 -271Q515 -207 617 -207Q686 -207 740 -237Q794 -267 824.5 -325Q855 -383 855 -463V-1118H1116V0H869L866 -276H886Q839 -130 747 -58Q655 14 521 14Z"/><path id="g39" d="M550 20Q418 20 313.5 -47.5Q209 -115 149 -244Q89 -373 89 -557Q89 -743 150.5 -871.5Q212 -1000 316.5 -1066Q421 -1132 549 -1132Q649 -1132 712.5 -1098.5Q776 -1065 813.5 -1019Q851 -973 870 -933H881V-1490H1141V0H886V-177H870Q850 -137 811.5 -91Q773 -45 710 -12.5Q647 20 550 20ZM621 -194Q706 -194 765 -239.5Q824 -285 855 -367Q886 -449 886 -558Q886 -667 855.5 -747.5Q825 -828 765.5 -873Q706 -918 621 -918Q533 -918 474 -871.5Q415 -825 385 -743.5Q355 -662 355 -558Q355 -454 385 -371.5Q415 -289 474.5 -241.5Q534 -194 621 -194Z"/><path id="g40" d="M150 0V-1490H707Q878 -1490 995 -1426Q1112 -1362 1172 -1250.5Q1232 -1139 1232 -997Q1232 -854 1171.5 -743Q1111 -632 993 -568Q875 -504 703 -504H334V-724H668Q769 -724 833.5 -759Q898 -794 928.5 -856Q959 -918 959 -997Q959 -1076 928.5 -1137Q898 -1198 833 -1232Q768 -1266 666 -1266H417V0Z"/><path id="g41" d="M398 -655V0H138V-1490H394V-842H367Q414 -987 505 -1059.5Q596 -1132 733 -1132Q848 -1132 934.5 -1083Q1021 -1034 1068.5 -940Q1116 -846 1116 -711V0H855V-671Q855 -783 797 -847Q739 -911 637 -911Q568 -911 514 -881Q460 -851 429 -793.5Q398 -736 398 -655Z"/><path id="g42" d="M398 -655V0H138V-1118H384L388 -842H367Q414 -987 505 -1059.5Q596 -1132 733 -1132Q848 -1132 934 -1083Q1020 -1034 1067.5 -940Q1115 -846 1115 -711V0H855V-671Q855 -783 797 -847Q739 -911 637 -911Q568 -911 514 -881Q460 -851 429 -793.5Q398 -736 398 -655Z"/></defs><rect x="157" y="137.8" width="150" height="98" rx="10" fill="none" stroke="#f5f5f5" stroke-width="6"/><rect x="136" y="243.8" width="192" height="12" rx="6" fill="#f5f5f5"/><path d="M555 255.8A36 36 0 0 1 559.6 184A52 52 0 0 1 662.8 187.8A34 34 0 0 1 663 255.8Z" fill="none" stroke="#f5f5f5" stroke-width="6" stroke-linejoin="round"/><mask id="m" maskUnits="userSpaceOnUse" x="0" y="0" width="1216" height="684"><rect width="1216" height="684" fill="#fff"/><rect x="984" y="144.8" width="82" height="132" rx="25" fill="#000"/></mask><rect x="913" y="129.8" width="104" height="136" rx="14" fill="none" stroke="#f5f5f5" stroke-width="6" mask="url(#m)"/><rect x="995" y="155.8" width="60" height="110" rx="14" fill="none" stroke="#f5f5f5" stroke-width="6"/><path d="M350 197.8H476" stroke="#f5f5f5" stroke-width="6"/><path d="M326 197.8L352 210.8L352 184.8Z" fill="#f5f5f5"/><path d="M500 197.8L474 184.8L474 210.8Z" fill="#f5f5f5"/><path d="M740 197.8H870" stroke="#f5f5f5" stroke-width="6"/><path d="M716 197.8L742 210.8L742 184.8Z" fill="#f5f5f5"/><path d="M894 197.8L868 184.8L868 210.8Z" fill="#f5f5f5"/><path d="M114 197.8H94A30 30 0 0 0 64 227.8V429A30 30 0 0 0 94 459H408.6" fill="none" stroke="#a4a4a4" stroke-width="6" stroke-dasharray="15 11"/><path d="M1098 197.8H1122A30 30 0 0 1 1152 227.8V429A30 30 0 0 1 1122 459H807.4" fill="none" stroke="#a4a4a4" stroke-width="6" stroke-dasharray="15 11"/><path d="M138 197.8L112 184.8L112 210.8Z" fill="#a4a4a4"/><path d="M1074 197.8L1100 210.8L1100 184.8Z" fill="#a4a4a4"/><rect x="408.6" y="421" width="398.8" height="76" rx="38" fill="none" stroke="#a4a4a4" stroke-width="6"/><g transform="translate(438.6 475.0) scale(0.021484)" fill="#f5f5f5"><use href="#g0"/><use href="#g1" x="516"/><use href="#g2" x="2018"/><use href="#g3" x="2534"/><use href="#g4" x="3771"/><use href="#g5" x="5003"/><use href="#g6" x="6815"/><use href="#g7" x="8142"/><use href="#g8" x="9306"/><use href="#g9" x="10445"/><use href="#g10" x="11627"/><use href="#g11" x="12859"/><use href="#g0" x="14022"/><use href="#g12" x="14538"/></g><g transform="translate(247.3 93.8) scale(0.021484)" fill="#f5f5f5"><use href="#g1"/><use href="#g3" x="1502"/><use href="#g12" x="2739"/><use href="#g12" x="3971"/><use href="#g7" x="5203"/><use href="#g13" x="6362"/><use href="#g0" x="7503"/><use href="#g3" x="8019"/><use href="#g12" x="9256"/><use href="#g14" x="10488"/><use href="#g15" x="11591"/><use href="#g16" x="12737"/><use href="#g17" x="14006"/><use href="#g3" x="14759"/><use href="#g4" x="15996"/><use href="#g18" x="17228"/><use href="#g7" x="18494"/><use href="#g14" x="19697"/><use href="#g7" x="21346"/><use href="#g19" x="22549"/><use href="#g20" x="23792"/><use href="#g19" x="24995"/><use href="#g0" x="25692"/><use href="#g21" x="26208"/><use href="#g4" x="27474"/><use href="#g7" x="28706"/><use href="#g19" x="29909"/><use href="#g19" x="30599"/><use href="#g7" x="31276"/><use href="#g14" x="32479"/></g><g transform="translate(80.6 559.0) scale(0.021484)" fill="#f5f5f5"><use href="#g22"/><use href="#g3" x="1869"/><use href="#g19" x="3106"/><use href="#g14" x="3785"/><use href="#g5" x="5434"/><use href="#g7" x="6700"/><use href="#g18" x="8449"/><use href="#g11" x="9735"/><use href="#g14" x="10898"/><use href="#g14" x="12001"/><use href="#g7" x="13104"/><use href="#g4" x="14853"/><use href="#g12" x="16085"/><use href="#g0" x="17317"/><use href="#g21" x="17833"/><use href="#g4" x="19099"/><use href="#g7" x="20331"/><use href="#g23" x="21534"/><use href="#g7" x="23353"/><use href="#g12" x="24556"/><use href="#g19" x="25788"/><use href="#g14" x="27031"/><use href="#g0" x="28134"/><use href="#g2" x="29196"/><use href="#g7" x="29712"/><use href="#g4" x="30915"/><use href="#g17" x="32147"/><use href="#g14" x="33485"/><use href="#g8" x="34588"/><use href="#g12" x="35766"/><use href="#g9" x="36998"/><use href="#g10" x="38180"/><use href="#g17" x="39412"/><use href="#g3" x="40165"/><use href="#g12" x="41402"/><use href="#g0" x="42634"/><use href="#g14" x="43150"/><use href="#g11" x="44253"/><use href="#g19" x="45416"/><use href="#g0" x="46113"/><use href="#g3" x="46629"/><use href="#g12" x="47866"/></g><g transform="translate(493.6 613.0) scale(0.021484)" fill="#f5f5f5"><use href="#g7"/><use href="#g14" x="1203"/><use href="#g19" x="2306"/><use href="#g11" x="3549"/><use href="#g9" x="4712"/><use href="#g19" x="5894"/><use href="#g0" x="6591"/><use href="#g24" x="7107"/><use href="#g20" x="8245"/><use href="#g7" x="9448"/></g><g transform="translate(186.3 323.8) scale(0.021484)" fill="#f5f5f5"><use href="#g25"/><use href="#g26" x="1889"/><use href="#g27" x="3065"/></g><g transform="translate(391.1 323.8) scale(0.021484)" fill="#f5f5f5"><use href="#g28"/><use href="#g29" x="1372"/><use href="#g30" x="2619"/><use href="#g31" x="3342"/><use href="#g32" x="4110"/><use href="#g27" x="5837"/><use href="#g29" x="7030"/><use href="#g33" x="8277"/><use href="#g34" x="10121"/><use href="#g30" x="11399"/><use href="#g32" x="12102"/><use href="#g35" x="13829"/><use href="#g36" x="14365"/><use href="#g37" x="15874"/><use href="#g29" x="16410"/><use href="#g38" x="17657"/><use href="#g39" x="18911"/></g><g transform="translate(832.7 323.8) scale(0.021484)" fill="#f5f5f5"><use href="#g35"/><use href="#g40" x="536"/><use href="#g41" x="1857"/><use href="#g29" x="3111"/><use href="#g42" x="4358"/><use href="#g32" x="5611"/><use href="#g32" x="7338"/><use href="#g30" x="8549"/><use href="#g35" x="9788"/><use href="#g40" x="10324"/><use href="#g26" x="11627"/><use href="#g39" x="12803"/></g></svg>
