<svg xmlns="http://www.w3.org/2000/svg" viewBox="0 0 1024 1024" width="1024" height="1024">
<title>TablePro</title>
<defs>
<linearGradient id="bg" x1="0" y1="0" x2="0" y2="1"><stop offset="0" stop-color="#FFB95C"/><stop offset="0.68" stop-color="#FF9300"/><stop offset="1" stop-color="#FF9300"/></linearGradient>
<linearGradient id="fg" x1="0" y1="0" x2="0" y2="1"><stop offset="0" stop-color="#FFF8EB"/><stop offset="1" stop-color="#F9C884"/></linearGradient>
</defs>
<path fill="url(#bg)" d="M1024 512L1024 617.01C1024 734.2 1024 792.8 1004.06 855.87C978.99 924.74 924.74 978.99 855.87 1004.06C792.8 1024 734.2 1024 617.01 1024L406.99 1024C289.8 1024 231.2 1024 168.13 1004.06C99.26 978.99 45.01 924.74 19.94 855.87C0 792.8 0 734.2 0 617.01L0 406.99C0 289.8 0 231.2 19.94 168.13C45.01 99.26 99.26 45.01 168.13 19.94C231.2 0 289.8 0 406.99 0L617.01 0C734.2 0 792.8 0 855.87 19.94C924.74 45.01 978.99 99.26 1004.06 168.13C1024 231.2 1024 289.8 1024 406.99Z"/>
<path fill="url(#fg)" transform="translate(187 120.05) scale(1.3)" d="M0 348.346V304.773C59.5935 355.117 140.858 379.272 245.824 379.272C350.563 379.272 431.827 355.117 491.646 304.773V348.346C430.248 394.851 349.435 416.975 245.824 416.975C142.212 416.975 61.1736 394.851 0 348.346ZM0 472.513C0 546.785 99.7742 602.549 245.824 602.549C391.872 602.549 491.646 546.785 491.646 472.513V117.62C491.646 48.7639 393.227 0 245.824 0C98.4196 0 0 48.7639 0 117.62V472.513ZM39.9549 117.62C39.9549 69.9849 122.347 35.4439 245.824 35.4439C369.3 35.4439 451.465 69.9849 451.465 117.62C451.465 163.9 367.719 197.538 245.824 197.538C123.702 197.538 39.9549 163.9 39.9549 117.62Z"/>
</svg>
